# xmcd CD database file
#
# Track frame offsets:
#	150
#	14662
#	32365
#	48793
#	64709
#	80422
#	96542
#	109945
#	127959
#	141721
#	157110
#	179464
#	191604
#
# Disc length: 2727 seconds
#
# Revision: 0
# Processed by: cddbd v1.5.2PL0 Copyright (c) Steve Scherf et al.
# Submitted via: CDex 1.51
#
DISCID=b70aa50d
DTITLE=Lia Sophia - Castelo de Luz
DYEAR=2008
DGENRE=MPB
TTITLE0=A Flor
TTITLE1=Mais Uma Vez
TTITLE2=Castelo de Luz
TTITLE3=Deixa Chover
TTITLE4=Minhas Verdades
TTITLE5=Quero Te Encontrar
TTITLE6=Amar Demais
TTITLE7=Ela Esta em Casa
TTITLE8=Mulher
TTITLE9=Nao Passou
TTITLE10=Nao Demora -Gostar Sem Possuir-
TTITLE11=Meu Verso
TTITLE12=Minha Prece
EXTD=YEAR: 2008
EXTT0=
EXTT1=
EXTT2=
EXTT3=
EXTT4=
EXTT5=
EXTT6=
EXTT7=
EXTT8=
EXTT9=
EXTT10=
EXTT11=
EXTT12=
PLAYORDER=
